<svg width="16" height="16" viewBox="0 0 16 16" fill="none" xmlns="http://www.w3.org/2000/svg">
<path fill-rule="evenodd" clip-rule="evenodd" d="M2.76772 1.19131L0 2.38006V8.95429V15.5285L0.0960729 15.6427C0.293323 15.8771 0.199877 15.9069 2.91311 14.7434C4.27284 14.1603 5.43224 13.6652 5.48959 13.6432C5.5854 13.6063 5.78786 13.7 7.99172 14.8015L10.3896 16L13.1884 14.8011L15.9871 13.6021V7.02785V0.453572L15.8911 0.33941C15.6936 0.104707 15.7909 0.0734458 13.0364 1.25634C11.6561 1.84914 10.4915 2.34182 10.4485 2.35116C10.3975 2.36223 9.54694 1.9564 7.99994 1.18282C6.6962 0.53088 5.60833 -0.00138584 5.58247 2.71064e-06C5.55661 0.00139126 4.28999 0.537485 2.76772 1.19131ZM11.6811 6.64903L12.1787 6.15246L12.6004 6.57413L13.0221 6.99583L12.5255 7.49346L12.0289 7.99105L12.5255 8.48864L13.0221 8.98627L12.6004 9.40798L12.1787 9.82965L11.6811 9.33307L11.1835 8.83649L10.6857 9.33329L10.1879 9.8301L9.78498 9.42595C9.56342 9.20371 9.38212 9.00548 9.38212 8.98548C9.38212 8.96544 9.59719 8.73351 9.86008 8.47006L10.338 7.99105L9.86008 7.51204C9.59719 7.24859 9.38212 7.01666 9.38212 6.99662C9.38212 6.97662 9.56342 6.77839 9.78498 6.55615L10.1879 6.15201L10.6857 6.64881L11.1835 7.14561L11.6811 6.64903ZM4.80364 7.99105V8.77915H3.99678H3.18992V7.99105V7.20295H3.99678H4.80364V7.99105ZM7.99356 7.99105V8.77915H7.1867H6.37984V7.99105V7.20295H7.1867H7.99356V7.99105Z" fill="black"/>
</svg>
