<svg width="20" height="20" viewBox="0 0 20 20" fill="none" xmlns="http://www.w3.org/2000/svg">
<path fill-rule="evenodd" clip-rule="evenodd" d="M7.59607 0.448615C8.37451 0.24404 9.13159 0.0555498 9.27847 0.0297475C9.42534 0.00394531 9.83393 -0.00722449 10.1864 0.00489474C10.7683 0.0249445 10.965 0.0636479 12.3217 0.424879C13.8941 0.843579 14.3 1.00576 14.8422 1.43206C15.4045 1.87416 15.8947 2.60936 16.1164 3.34338C16.189 3.58364 16.2484 3.83033 16.2484 3.89159C16.2484 4.05747 16.0117 4.27712 15.8329 4.27712C15.6214 4.27712 15.4908 4.10164 15.3502 3.62821C15.1234 2.86542 14.523 2.13006 13.842 1.78112C13.627 1.67093 12.9667 1.46367 12.0825 1.22877C10.7095 0.86402 10.6471 0.852738 9.99949 0.852291C9.34956 0.851845 9.29508 0.86173 7.94323 1.2248C7.17948 1.42994 6.43442 1.6482 6.28754 1.70985C5.7644 1.92951 5.1285 2.53781 4.86199 3.07368C4.55462 3.69154 4.53432 3.82184 4.51088 5.32429C4.49881 6.09986 4.50169 6.73447 4.51729 6.73447C4.53293 6.73447 4.87753 6.6493 5.28307 6.54526C6.77939 6.16135 7.89917 6.01151 9.57222 5.97141C11.4661 5.92595 12.9114 6.08646 14.69 6.53956C15.1107 6.64679 15.4653 6.73447 15.4778 6.73447C15.4904 6.73447 15.5014 6.50203 15.5024 6.21787C15.5042 5.66558 15.546 5.54869 15.7744 5.45793C15.9326 5.39499 16.2149 5.50144 16.2671 5.6438C16.2862 5.6958 16.3021 6.04413 16.3025 6.41792C16.3031 7.06102 16.3117 7.11514 16.4627 7.4265C16.6172 7.74517 16.6223 7.78008 16.6223 8.537C16.6223 8.97447 16.5946 9.415 16.5595 9.5377C16.4357 9.96958 15.8751 10.4715 15.5124 10.4751C15.4749 10.4755 15.448 10.4745 15.4264 10.4853C15.3672 10.5148 15.3484 10.6328 15.2641 11.11C15.1531 11.7374 14.8982 12.3992 14.5467 12.9722C14.2448 13.4644 13.4971 14.2567 13.08 14.5264L12.8226 14.693L12.84 15.122C12.8584 15.5765 12.9332 15.7465 13.2095 15.9622C13.2932 16.0275 13.7246 16.146 14.3813 16.284C15.6405 16.5485 16.0816 16.6948 16.916 17.1239C18.1765 17.7722 19.2396 18.7733 20 20H18.9977C18.8169 19.7635 18.6112 19.5287 18.3632 19.271C18.0372 18.9323 17.6204 18.5474 17.4368 18.4157L17.1029 18.1764V20H16.2484V17.6944L15.6661 17.4922C15.3459 17.381 15.0695 17.2899 15.0519 17.2899C15.0343 17.2899 15.02 18.3924 15.02 19.7399V20H14.2188V19.6673C14.2188 17.2981 14.2126 17.1281 14.1254 17.1034C13.9969 17.067 13.9151 17.0413 13.835 17.0465C13.6771 17.0568 13.5264 17.1872 13.0393 17.5925C11.9575 18.4926 11.3326 18.7814 10.3445 18.8379C9.48084 18.8873 8.63638 18.6608 7.96994 18.2012C7.80837 18.0897 7.42383 17.7812 7.11539 17.5156C6.80695 17.25 6.53055 17.019 6.50118 17.0023C6.4718 16.9856 6.3276 16.9997 6.18072 17.0336L5.91367 17.0952L5.89789 20H5.08583V19.7399C5.08583 17.443 5.08001 17.29 4.99236 17.2921C4.90835 17.294 4.13162 17.5492 3.89747 17.6518C3.81383 17.6885 3.804 17.7893 3.804 18.6084C3.804 19.4494 3.7953 19.533 3.69718 19.6356C3.56227 19.7767 3.31915 19.779 3.15567 19.6406C3.03816 19.5413 3.02775 19.4857 3.00286 18.8269L2.97616 18.1199L2.57559 18.4117C2.13729 18.7311 1.42048 19.4608 0.996461 20H0C0.772 18.7557 1.8559 17.7407 3.13639 17.0929C3.92722 16.6929 4.39028 16.5419 5.61773 16.284C6.2744 16.146 6.70579 16.0275 6.78948 15.9622C7.06582 15.7465 7.1406 15.5765 7.15902 15.122L7.17643 14.693L6.91895 14.5264C6.54134 14.2822 5.75697 13.471 5.48538 13.0438C5.35555 12.8396 5.17417 12.4988 5.0823 12.2865C4.90183 11.8696 4.65855 10.9535 4.65855 10.6908C4.65855 10.6017 4.62854 10.5198 4.59179 10.5089C4.5551 10.498 4.41688 10.4587 4.28469 10.4216C3.97657 10.3349 3.5368 9.87905 3.44237 9.54837C3.35862 9.25505 3.35568 7.87709 3.43831 7.62242C3.47217 7.51804 3.54427 7.3659 3.59854 7.28436C3.68842 7.14921 3.69718 7.00428 3.69718 5.64838C3.69718 3.92918 3.74744 3.55309 4.07084 2.85297C4.44481 2.04333 5.0478 1.40296 5.80077 1.01593C6.06263 0.881277 6.62066 0.704962 7.59607 0.448615ZM15.0346 7.51273C14.9332 7.41494 13.2657 7.06745 12.216 6.92537C11.4567 6.8226 9.24177 6.7767 8.47733 6.84785C7.45721 6.94285 5.90732 7.22103 5.19906 7.43638L4.90995 7.52424L5.1982 7.83029C5.36142 8.00364 5.63076 8.2109 5.81935 8.3083C6.12897 8.46819 6.18136 8.47808 6.56709 8.44971C6.7952 8.4329 7.25826 8.37828 7.59607 8.32829C7.93388 8.27831 8.61288 8.21894 9.10489 8.19638C10.1708 8.1474 11.5547 8.2028 12.4029 8.32829C13.5492 8.49785 13.793 8.49886 14.1347 8.33527C14.4474 8.1856 15.1071 7.5826 15.0346 7.51273ZM7.52461 9.18474C6.36963 9.36245 5.97958 9.34056 5.45692 9.06868C5.19858 8.93437 4.90301 8.71092 4.61385 8.43139L4.16852 8.00102L4.18657 8.68517C4.2042 9.35536 4.20762 9.37206 4.35444 9.50397C4.44038 9.58121 4.57224 9.63862 4.66368 9.63862C4.88907 9.63862 5.23014 9.83538 5.32014 10.0173C5.36206 10.1021 5.4355 10.4084 5.48325 10.698C5.65779 11.7554 6.01136 12.5054 6.65569 13.1849C8.55135 15.1841 11.4476 15.1841 13.3433 13.1849C13.9689 12.5251 14.3581 11.7179 14.4894 10.8074C14.5816 10.1678 14.6919 9.91385 14.9413 9.76613C15.058 9.69704 15.2303 9.64002 15.3241 9.63952C15.4264 9.63901 15.5547 9.58467 15.6445 9.50397C15.7914 9.37206 15.7948 9.35541 15.8125 8.68478L15.8305 8.00024L15.3863 8.43178C14.5007 9.29202 14.0062 9.42031 12.4802 9.18563C11.7319 9.07053 11.4308 9.05461 9.99949 9.05461C8.57111 9.05461 8.26631 9.07064 7.52461 9.18474ZM9.99949 15.5193C9.33102 15.5193 9.15563 15.4994 8.71767 15.374C8.4386 15.2941 8.15975 15.213 8.09807 15.1939C7.99686 15.1624 7.98265 15.1869 7.9537 15.4425C7.91151 15.815 7.76447 16.1526 7.53225 16.41L7.34398 16.6187L7.83054 17.0296C8.63259 17.707 9.12224 17.9334 9.91628 17.994C10.7576 18.0582 11.5186 17.7758 12.3388 17.0949L12.782 16.7268L12.5499 16.4909C12.2677 16.2041 12.0899 15.8365 12.046 15.449C12.0163 15.187 12.0023 15.1624 11.9009 15.1939C10.9554 15.4876 10.7703 15.5193 9.99949 15.5193Z" fill="white"/>
<path fill-rule="evenodd" clip-rule="evenodd" d="M7.65327 2.84476C7.76922 2.59433 8.01939 2.3935 8.30951 2.31805C8.4018 2.29403 9.21037 2.2789 10.1063 2.28443L11.7353 2.29448L11.9839 2.44728C12.3542 2.67492 12.4563 2.93473 12.4563 3.64887C12.4563 4.2731 12.4121 4.45176 12.1992 4.68699C12.1393 4.75323 12.092 4.80559 12.0372 4.84698C11.8299 5.0034 11.5145 5.00316 9.99949 5.00316C8.48445 5.00316 8.16906 5.0034 7.96181 4.84698C7.90697 4.80559 7.8597 4.75323 7.79977 4.68699C7.58688 4.45176 7.54266 4.2731 7.54266 3.64887C7.54266 3.19141 7.56376 3.03816 7.65327 2.84476ZM11.6285 4.1375V3.18806L10.0115 3.17326C8.68867 3.1612 8.38941 3.17231 8.36661 3.23436C8.35133 3.27608 8.34594 3.49635 8.35464 3.72388L8.37051 4.1375H11.6285Z" fill="white"/>
</svg>
