<svg width="16" height="18" viewBox="0 0 16 18" fill="none" xmlns="http://www.w3.org/2000/svg">
<path d="M7.99999 0.00012207C3.86473 0.00012207 0.5 3.3645 0.5 7.50011C0.5 9.51316 1.2881 11.4039 2.71632 12.8211L7.7334 17.8888C7.80371 17.9602 7.89965 18.0001 7.99999 18.0001C8.10032 18.0001 8.19627 17.9602 8.26658 17.8888L13.2815 12.8237C14.7119 11.4039 15.5 9.51316 15.5 7.50011C15.5 3.3645 12.1352 0.00012207 7.99999 0.00012207ZM7.99999 10.5001C6.34543 10.5001 5 9.15432 5 7.50015C5 5.84594 6.34543 4.50012 7.99999 4.50012C9.65455 4.50012 11 5.84594 11 7.50011C11 9.15428 9.65455 10.5001 7.99999 10.5001Z" fill="black"/>
</svg>
