<svg width="24" height="24" viewBox="0 0 24 24" fill="none" xmlns="http://www.w3.org/2000/svg">
<path d="M23.9475 18.5956C23.8796 18.391 23.4477 18.0897 22.6521 17.6923C22.4366 17.5671 22.1295 17.3969 21.7321 17.1809C21.3344 16.965 20.9734 16.766 20.6497 16.5842C20.3254 16.4024 20.0216 16.2262 19.7377 16.056C19.6923 16.022 19.5503 15.9227 19.3117 15.7575C19.0728 15.5929 18.8714 15.4707 18.7063 15.391C18.5416 15.3117 18.3796 15.2719 18.2205 15.2719C17.9932 15.2719 17.7094 15.4339 17.3686 15.7575C17.0279 16.0816 16.7153 16.4336 16.4313 16.8146C16.1473 17.1954 15.8461 17.5474 15.5283 17.8713C15.2099 18.1953 14.9484 18.3572 14.7441 18.3572C14.6415 18.3572 14.5136 18.3286 14.3604 18.2722C14.2072 18.2154 14.0907 18.1667 14.0107 18.1275C13.9314 18.0875 13.7953 18.0082 13.602 17.8885C13.4083 17.7691 13.3006 17.7037 13.2779 17.6923C11.7212 16.8285 10.3861 15.8399 9.27238 14.7266C8.15901 13.6127 7.17023 12.2777 6.30664 10.7208C6.2953 10.6981 6.22981 10.5901 6.11058 10.397C5.99118 10.2037 5.9116 10.0675 5.87184 9.98779C5.83207 9.90832 5.78378 9.79179 5.72706 9.63841C5.67034 9.48504 5.64186 9.35728 5.64186 9.25489C5.64186 9.05047 5.80384 8.78898 6.12772 8.47077C6.45154 8.15274 6.8039 7.85148 7.18444 7.5676C7.56527 7.28372 7.91727 6.97112 8.24121 6.63034C8.56504 6.28939 8.72695 6.00545 8.72695 5.77822C8.72695 5.61924 8.68719 5.45715 8.60772 5.29243C8.5282 5.12736 8.40605 4.92592 8.24121 4.68718C8.07632 4.44855 7.97692 4.30664 7.94277 4.26097C7.7725 3.97708 7.59656 3.67314 7.41453 3.34926C7.2325 3.02544 7.03381 2.66448 6.81781 2.26681C6.60199 1.86932 6.43166 1.56239 6.30652 1.34651C5.90903 0.551225 5.60795 0.119224 5.40336 0.0512837C5.32377 0.0171941 5.20437 0 5.04545 0C4.73846 0 4.33798 0.0567166 3.84371 0.170508C3.34926 0.28412 2.96019 0.403285 2.67607 0.528479C2.10789 0.766987 1.50568 1.46012 0.869256 2.60765C0.289732 3.67559 0 4.73261 0 5.77793C0 6.08449 0.0198806 6.38276 0.0596419 6.67279C0.0994032 6.96253 0.170448 7.28927 0.272836 7.65297C0.375046 8.01656 0.457494 8.28665 0.519822 8.46253C0.58221 8.63853 0.698688 8.95381 0.869196 9.4085C1.03947 9.86307 1.14185 10.1413 1.17594 10.2436C1.57362 11.3573 2.0452 12.3515 2.59057 13.2265C3.48789 14.681 4.71243 16.1841 6.26348 17.7353C7.81459 19.2863 9.3174 20.5108 10.772 21.4085C11.6469 21.9538 12.6415 22.4253 13.755 22.8233C13.8573 22.8572 14.1356 22.9593 14.5899 23.1302C15.0445 23.3006 15.3599 23.4171 15.5359 23.4796C15.712 23.5421 15.9821 23.6247 16.3454 23.727C16.7095 23.8294 17.0359 23.9005 17.3257 23.9405C17.6156 23.9798 17.9139 24 18.2205 24C19.2658 24 20.3229 23.7101 21.391 23.1306C22.5384 22.4944 23.2313 21.8921 23.47 21.3235C23.5955 21.0397 23.7143 20.6505 23.8279 20.1561C23.9419 19.6618 23.9985 19.2614 23.9985 18.9545C23.9989 18.7949 23.9817 18.6758 23.9475 18.5956Z" fill="black"/>
</svg>
